<svg width="1920" height="614" viewBox="0 0 1920 614" fill="none" xmlns="http://www.w3.org/2000/svg">
<g clip-path="url(#clip0_296_150)">
<rect width="1920" height="614" fill="black"/>
<rect width="1920" height="614" fill="url(#paint0_radial_296_150)" fill-opacity="0.2"/>
<rect width="1920" height="614" fill="url(#paint1_radial_296_150)" fill-opacity="0.2"/>
<rect width="1920" height="614" fill="url(#paint2_radial_296_150)" fill-opacity="0.2"/>
<rect width="1920" height="614" fill="url(#paint3_radial_296_150)" fill-opacity="0.2"/>
<path fill-rule="evenodd" clip-rule="evenodd" d="M904.971 402.343C901.846 399.219 896.781 399.219 893.657 402.343C890.533 405.467 890.533 410.533 893.657 413.657L953.975 473.975C953.982 473.982 953.989 473.989 953.997 473.997C956.34 476.34 959.775 476.926 962.664 475.754C963.627 475.363 964.529 474.778 965.31 473.997L1025.65 413.657C1028.77 410.533 1028.77 405.467 1025.65 402.343C1022.53 399.219 1017.46 399.219 1014.34 402.343L959.654 457.026L904.971 402.343Z" fill="black" fill-opacity="0.25"/>
<path fill-rule="evenodd" clip-rule="evenodd" d="M960 128L0 0H1920L960 128Z" fill="white"/>
<path d="M0 486L960 614L1920 486V614H0V486Z" fill="#4C1B28"/>
</g>
<defs>
<radialGradient id="paint0_radial_296_150" cx="0" cy="0" r="1" gradientUnits="userSpaceOnUse" gradientTransform="translate(0 614) scale(960 388.851)">
<stop stop-color="#B33F5E"/>
<stop offset="1" stop-color="#B33F5E" stop-opacity="0"/>
</radialGradient>
<radialGradient id="paint1_radial_296_150" cx="0" cy="0" r="1" gradientUnits="userSpaceOnUse" gradientTransform="translate(1920 614) rotate(-162.266) scale(1007.89 662.785)">
<stop stop-color="#4472C4"/>
<stop offset="1" stop-color="#444477" stop-opacity="0"/>
</radialGradient>
<radialGradient id="paint2_radial_296_150" cx="0" cy="0" r="1" gradientUnits="userSpaceOnUse" gradientTransform="translate(1920 307) rotate(-180) scale(960 388.851)">
<stop stop-color="#92FBF5"/>
<stop offset="1" stop-color="white" stop-opacity="0"/>
</radialGradient>
<radialGradient id="paint3_radial_296_150" cx="0" cy="0" r="1" gradientUnits="userSpaceOnUse" gradientTransform="translate(0 307) scale(960 307)">
<stop stop-color="#D324FF"/>
<stop offset="1" stop-opacity="0"/>
</radialGradient>
<clipPath id="clip0_296_150">
<rect width="1920" height="614" fill="white"/>
</clipPath>
</defs>
</svg>
