<svg width="96" height="1080" viewBox="0 0 96 1080" fill="none" xmlns="http://www.w3.org/2000/svg">
<g clip-path="url(#clip0_414_566)">
<path d="M61.7954 0C61.7954 0 46.6275 27.8086 45.5736 53.332C44.5131 79.2352 45.5736 101.334 50.863 132.954C57.9134 175.999 86.4751 259.045 70.9603 303.237C55.4455 347.428 54.7385 349.334 44.8666 371.812C33.5807 396.949 11.0089 448.003 12.0695 511.235C13.1234 578.665 70.6068 700.952 67.7853 751.24C67.4318 756.57 64.9638 776.384 60.7349 791.241C56.506 805.711 47.3346 827.051 44.1596 855.998C42.7521 868.191 40.2776 887.618 40.9846 910.097C41.3381 915.806 42.3986 934.095 46.6275 955.807C50.863 977.527 57.5599 997.713 59.6744 1016C63.5564 1055.24 57.9134 1080 57.9134 1080H96L96 0H61.7954ZM56.1525 86.4774C59.6744 89.1422 57.5599 94.0922 57.5599 102.86C57.5599 111.621 61.7954 126.098 61.4419 124.952C61.0884 123.806 56.1525 113.14 54.7385 102.094C52.9775 90.668 52.624 84.1922 56.1525 86.4774ZM65.6708 156.572C65.6708 156.572 66.3778 165.713 68.8458 177.905C71.6673 190.097 78.7177 217.146 81.1856 235.427C85.0676 266.667 81.1856 295.622 80.8387 292.95C80.4852 289.905 82.9532 256.38 76.9567 225.907C74.4887 213.335 69.1993 190.477 67.4318 178.664C65.3173 166.092 65.6708 156.572 65.6708 156.572ZM66.0243 374.477C68.4923 368.002 49.449 425.145 44.5131 444.952C42.3986 452.953 38.8701 468.57 37.4561 483.047C36.0487 497.904 36.0487 516.952 35.6952 516.572C34.9882 516.572 32.8737 494.48 35.6952 473.906C38.5166 453.333 39.5771 454.092 41.3381 444.952C44.1596 430.474 63.5564 380.953 66.0243 374.477ZM71.6673 321.525C71.6673 320.759 73.0747 324.57 67.7853 339.806C62.4959 355.05 55.4455 365.337 54.7385 366.096C54.385 366.855 61.0884 352.765 65.3173 340.952C69.5528 329.527 71.6673 321.905 71.6673 321.525ZM74.8422 1.90552C74.4887 2.28516 70.9603 9.14062 66.0243 20.1937C61.0884 31.2399 56.1525 46.4766 56.506 45.7172C56.506 44.9508 58.6204 32.3789 65.3173 17.5219C72.0208 2.66492 75.1958 1.52588 74.8422 1.90552ZM55.092 960.764C55.799 960.384 55.799 967.999 59.3209 977.906C62.8494 987.806 64.9638 998.48 66.3778 1007.62C69.1993 1022.86 66.0243 1052.19 65.6708 1050.67C65.3173 1049.53 66.7313 1019.43 63.2029 1003.05C61.4419 994.669 61.4419 993.902 57.5599 981.33C53.6845 968.759 54.0314 961.144 55.092 960.764ZM63.5564 801.907C63.9099 800.381 69.1993 788.569 72.7278 769.908C76.6032 751.24 74.4887 736.003 75.5493 736.003C76.6032 736.003 78.7177 739.807 76.6032 759.621C74.4887 779.428 63.2029 803.426 63.5564 801.907ZM72.3743 807.237C72.0208 806.477 76.9567 794.285 78.3642 785.524C79.4247 776.763 80.1317 778.289 80.4852 778.289C80.8387 778.289 81.1856 782.48 79.7782 788.569C78.0172 795.045 72.7278 808.003 72.3743 807.237ZM80.4852 723.431C79.7782 723.045 77.6637 710.093 74.1352 702.098C70.6068 694.097 72.0208 695.236 72.3743 694.856C72.7278 694.477 75.1957 697.908 76.9567 703.997C79.0712 710.093 81.1856 723.811 80.4852 723.431ZM56.8529 830.855C55.799 831.241 55.092 829.716 57.5599 823.62C60.0279 817.523 62.1424 813.712 61.7954 815.238C61.4419 816.764 60.3814 818.67 58.9739 824.759C57.5599 831.241 57.9134 830.475 56.8529 830.855ZM52.2705 948.572C52.2705 949.331 49.449 940.57 49.0955 936C48.742 931.43 48.742 928.378 49.8025 928.378C50.863 928.378 51.5635 928.765 51.21 934.474C50.863 940.57 52.2705 947.812 52.2705 948.572ZM21.5878 500.189C21.2343 500.569 22.6483 509.337 22.6483 528.764C22.6483 547.812 31.1127 580.57 34.9882 594.288C38.8701 607.999 21.2343 556.193 20.5339 531.429C19.8269 506.665 21.9413 499.809 21.5878 500.189Z" fill="white"/>
<path d="M32.5204 52.9523C32.8739 53.332 31.4664 70.4742 32.5204 80.3812C34.9884 108.19 43.8063 145.146 42.7523 143.62C41.6918 142.094 31.8199 91.4273 31.1129 78.8554C29.6989 60.1875 32.5204 52.5726 32.5204 52.9523Z" fill="white"/>
<path d="M61.4421 213.715C61.7956 214.474 64.964 230.857 65.671 249.905C66.378 268.953 63.5566 298.287 63.9101 296.761C64.2636 295.622 70.2535 274.289 68.139 246.094C66.0245 217.906 61.0886 212.956 61.4421 213.715Z" fill="white"/>
<path d="M48.7418 300.952C49.0953 301.331 52.2703 293.337 52.6238 288.759C52.9773 284.189 52.6238 281.145 51.5633 281.145C50.5093 281.145 49.8023 281.524 50.1558 287.241C50.5093 293.716 48.3883 300.572 48.7418 300.952Z" fill="white"/>
<path d="M58.6204 314.283C58.9739 314.283 54.3849 331.045 50.863 338.287C47.688 345.523 39.9306 361.905 39.9306 361.526C39.5771 361.146 45.5736 345.523 49.0955 337.521C52.624 329.527 58.2669 314.283 58.6204 314.283Z" fill="white"/>
<path d="M1.84426 491.428C2.19122 491.808 0.783759 508.95 1.84426 518.857C4.31223 546.666 13.1236 583.622 12.0696 582.096C11.0091 580.57 1.13726 529.903 0.430257 517.331C-0.977206 498.663 1.49076 491.048 1.84426 491.428Z" fill="white"/>
<path d="M27.9379 920.384C27.9379 920.384 28.9984 915.806 28.2914 909.33C27.5844 902.855 25.1164 887.238 25.8234 878.098C27.2309 862.094 35.3418 849.902 34.9883 851.428C34.9883 852.954 27.2309 867.811 28.2914 884.194C28.6449 891.049 30.0524 903.621 29.6989 909.717C29.3454 915.806 27.9379 920.384 27.9379 920.384Z" fill="white"/>
<path d="M51.5633 792.38C51.2098 791.62 54.3848 784.765 55.4453 775.997C56.1523 767.236 56.5058 768.002 57.2063 768.002C57.5598 768.002 58.6203 774.858 57.2063 780.954C55.4453 787.05 51.9168 793.146 51.5633 792.38Z" fill="white"/>
<path d="M49.449 1020.57C49.8025 1020.57 49.449 1004.19 47.688 995.048C45.9205 985.908 40.9846 976.001 40.6311 976.001C40.2776 976.001 43.4526 986.287 45.5736 995.428C47.688 1004.19 49.0955 1020.19 49.449 1020.57Z" fill="white"/>
</g>
<defs>
<clipPath id="clip0_414_566">
<rect width="1080" height="96" fill="white" transform="matrix(0 -1 1 0 0 1080)"/>
</clipPath>
</defs>
</svg>
